<svg width="44" height="44" viewBox="0 0 44 44" fill="none" xmlns="http://www.w3.org/2000/svg">
<path d="M15.3189 24.5034L14.4835 27.6221L11.4301 27.6867C10.5176 25.9942 10 24.0577 10 21.9999C10 20.01 10.4839 18.1335 11.3418 16.4812H11.3424L14.0608 16.9796L15.2516 19.6816C15.0024 20.4082 14.8665 21.1882 14.8665 21.9999C14.8666 22.8808 15.0262 23.7247 15.3189 24.5034Z" fill="#FBBB00"/>
<path d="M33.7902 19.7583C33.928 20.4842 33.9999 21.2339 33.9999 22.0001C33.9999 22.8592 33.9095 23.6972 33.7375 24.5056C33.1533 27.2563 31.6269 29.6583 29.5124 31.3581L29.5118 31.3574L26.0878 31.1827L25.6032 28.1576C27.0063 27.3348 28.1028 26.0471 28.6804 24.5056H22.2637V19.7583H28.774H33.7902Z" fill="#518EF8"/>
<path d="M29.5119 31.3575L29.5126 31.3581C27.4561 33.0111 24.8438 34.0001 22.0001 34.0001C17.4302 34.0001 13.457 31.4458 11.4302 27.6869L15.319 24.5037C16.3324 27.2083 18.9414 29.1336 22.0001 29.1336C23.3148 29.1336 24.5465 28.7781 25.6033 28.1577L29.5119 31.3575Z" fill="#28B446"/>
<path d="M29.6596 12.7626L25.7721 15.9453C24.6783 15.2615 23.3853 14.8666 22.0001 14.8666C18.8721 14.8666 16.2143 16.8802 15.2517 19.6818L11.3425 16.4813H11.3418C13.339 12.6308 17.3622 10 22.0001 10C24.9117 10 27.5814 11.0372 29.6596 12.7626Z" fill="#F14336"/>
<rect x="0.5" y="0.5" width="43" height="43" rx="21.5" stroke="#EEEEEE"/>
</svg>
