<?xml version="1.0"?>
<svg xmlns="http://www.w3.org/2000/svg" viewBox="0 0 50 50">
    <path style="text-indent:0;text-align:start;line-height:normal;text-transform:none;block-progression:tb;-inkscape-font-specification:Sans" d="M 4 4 C 1.8 4 1.4988011e-16 5.8 0 8 C 0 10.2 1.8 12 4 12 C 6.2 12 8 10.2 8 8 C 8 5.8 6.2 4 4 4 z M 12 6 L 12 10 L 50 10 L 50 6 L 12 6 z M 4 21 C 1.8 21 9.9920072e-17 22.8 0 25 C 0 27.2 1.8 29 4 29 C 6.2 29 8 27.2 8 25 C 8 22.8 6.2 21 4 21 z M 12 23 L 12 27 L 50 27 L 50 23 L 12 23 z M 4 38 C 1.8 38 4.9960036e-17 39.8 0 42 C 0 44.2 1.8 46 4 46 C 6.2 46 8 44.2 8 42 C 8 39.8 6.2 38 4 38 z M 12 40 L 12 44 L 50 44 L 50 40 L 12 40 z" overflow="visible" font-family="Sans"/>
</svg>
